<svg width="40" height="40" viewBox="0 0 40 40" xmlns="http://www.w3.org/2000/svg"><title>icon-linkedin</title><g fill="none" fill-rule="evenodd"><path fill="#FFF" fill-rule="nonzero" d="M0 0h40v40H0z"/><path d="M12.355 10c1.3 0 2.354 1.079 2.354 2.407 0 1.33-1.055 2.409-2.354 2.409-1.303 0-2.355-1.079-2.355-2.409C10 11.08 11.052 10 12.355 10zm-2.032 20V16.64h4.063V30h-4.063zm7.02-13.411h3.89v1.826h.056c.541-1.05 1.867-2.158 3.842-2.158 4.11 0 4.869 2.766 4.869 6.364v7.327h-4.058V23.45c0-1.549-.027-3.542-2.11-3.542-2.113 0-2.435 1.688-2.435 3.432v6.607h-4.055v-13.36z" fill="#000"/></g></svg>