<svg width="40" height="40" viewBox="0 0 40 40" xmlns="http://www.w3.org/2000/svg"><title>icon-twitter</title><g fill="none"><path fill="#FFF" d="M0 0h40v40H0z"/><path d="M16.975 28.15c7.169 0 11.092-6.214 11.092-11.603 0-.177 0-.352-.011-.527A8.14 8.14 0 0 0 30 13.91a7.5 7.5 0 0 1-2.239.64 4.067 4.067 0 0 0 1.715-2.254 7.615 7.615 0 0 1-2.476.99c-1.477-1.643-3.946-1.722-5.516-.177-1.012.995-1.442 2.48-1.128 3.896-3.134-.164-6.055-1.713-8.035-4.26-1.034 1.862-.506 4.246 1.208 5.442a3.728 3.728 0 0 1-1.769-.51v.051c0 1.942 1.307 3.614 3.127 3.997a3.715 3.715 0 0 1-1.76.07c.512 1.662 1.974 2.8 3.642 2.833a7.603 7.603 0 0 1-4.841 1.75c-.31-.002-.62-.02-.928-.06a10.68 10.68 0 0 0 5.976 1.829" fill="#000"/></g></svg>